<?xml version="1.0" encoding="UTF-8"?>
<svg version="1.1" xmlns="http://www.w3.org/2000/svg" width="256" height="256">
<path d="M0 0 C1.26469116 -0.00671722 2.52938232 -0.01343445 3.83239746 -0.02035522 C7.27906243 -0.03790834 10.72562788 -0.04270618 14.17233324 -0.0439868 C16.33388691 -0.04541558 18.49541586 -0.04969893 20.65696335 -0.05498123 C28.22152033 -0.07344948 35.78600716 -0.08165629 43.35058594 -0.08007812 C50.3630239 -0.07887911 57.37515291 -0.09994241 64.3875128 -0.13156545 C70.43884854 -0.1578662 76.49008427 -0.16843962 82.54147661 -0.16716731 C86.14189381 -0.1666615 89.74203635 -0.17212951 93.34239578 -0.19352341 C119.31845709 -0.33726785 140.61163562 2.53726424 160.09912109 21.29052734 C179.39534843 41.34223503 181.73589649 63.3561486 181.63642311 89.97210312 C181.62616351 93.58452244 181.63572417 97.19690487 181.64196777 100.80932617 C181.64920705 106.87116909 181.63975517 112.93281589 181.62060547 118.99462891 C181.59884377 125.96291608 181.60589781 132.9307348 181.62791109 139.89901066 C181.64617217 145.92501563 181.64857161 151.95088112 181.63815641 157.97690487 C181.63197977 161.55707899 181.63092203 165.1370343 181.64430237 168.7171936 C181.72924379 195.00165793 178.41040562 216.29296463 159.55224609 235.86083984 C144.91227696 250.26468045 126.10576303 256.7726468 105.85766602 256.69458008 C103.95997215 256.70487495 103.95997215 256.70487495 102.02394104 256.71537781 C98.58979446 256.733147 95.15590565 256.73217155 91.72172713 256.72643542 C88.83705458 256.72331887 85.9524298 256.72946335 83.0677641 256.73547417 C76.25224732 256.74946538 69.43685601 256.74800429 62.62133789 256.73657227 C55.63097481 256.72510478 48.64099604 256.73915581 41.65068358 256.76596874 C35.61201344 256.78824925 29.57346283 256.7947353 23.53475457 256.78889233 C19.94445953 256.78554983 16.35441041 256.78775409 12.76415062 256.80514336 C-13.16694415 256.91888868 -34.45018574 254.00838435 -53.90087891 235.29052734 C-73.19710624 215.23881966 -75.5376543 193.22490608 -75.43818092 166.60895157 C-75.42792133 162.99653225 -75.43748199 159.38414982 -75.44372559 155.77172852 C-75.45096486 149.7098856 -75.44151298 143.64823879 -75.42236328 137.58642578 C-75.40060158 130.6181386 -75.40765562 123.65031988 -75.4296689 116.68204403 C-75.44792998 110.65603906 -75.45032942 104.63017357 -75.43991423 98.60414982 C-75.43373758 95.0239757 -75.43267984 91.44402039 -75.44606018 87.86386108 C-75.52959188 62.01148698 -72.60470994 40.6612697 -53.90087891 21.29052734 C-38.54281468 6.89091587 -20.87974658 -0.01606011 0 0 Z " fill="#00001A" transform="translate(74.90087890625,-0.29052734375)"/>
<path d="M0 0 C19.61300112 6.55267891 19.61300112 6.55267891 26 15 C28.0827621 16.63385609 30.2136414 18.16235418 32.390625 19.66796875 C33.18726563 20.32732422 33.18726563 20.32732422 34 21 C34 21.66 34 22.32 34 23 C34.99 23.33 35.98 23.66 37 24 C37.66666667 25.66666667 38.33333333 27.33333333 39 29 C39.99 29.33 40.98 29.66 42 30 C42 30.99 42 31.98 42 33 C42.66 33 43.32 33 44 33 C44.33 34.65 44.66 36.3 45 38 C45.66 38 46.32 38 47 38 C47.33 39.65 47.66 41.3 48 43 C48.66 43 49.32 43 50 43 C54.03765896 51.62590778 55.36075576 60.67025884 57 70 C57.66 70 58.32 70 59 70 C59.73055924 102.05094518 59.73055924 102.05094518 52.18359375 115.78125 C50.93663926 118.00844876 50.93663926 118.00844876 50.02734375 120.5390625 C48.9880684 123.02858141 47.8048556 124.77735647 46.125 126.875 C44.18687051 129.36421209 42.51517767 131.76405168 41.0625 134.5625 C39.13075201 138.11756563 36.5272994 140.65579225 33.60546875 143.421875 C31.86216723 145.04579278 31.86216723 145.04579278 30.25 147.4375 C29.8375 147.953125 29.425 148.46875 29 149 C28.01 149 27.02 149 26 149 C26 149.66 26 150.32 26 151 C23.57187393 152.21406303 21.14365086 153.42792467 18.71484375 154.640625 C17.12154401 155.43842113 15.52970291 156.23916437 13.94140625 157.046875 C12.67012622 157.6917655 11.39387887 158.32694099 10.11328125 158.953125 C8.55397525 159.72557233 7.01193082 160.53309779 5.48046875 161.359375 C-1.23187714 164.77796604 -7.46399509 166.60856245 -15 165 C-17.62371535 163.25429963 -19.00074727 161.51188163 -21 159 C-21.99 158.67 -22.98 158.34 -24 158 C-27 153.66666667 -27 153.66666667 -27 151 C-27.99 150.67 -28.98 150.34 -30 150 C-30 148.68 -30 147.36 -30 146 C-30.99 146 -31.98 146 -33 146 C-33 145.34 -33 144.68 -33 144 C-33.66 144 -34.32 144 -35 144 C-35.36116046 142.5225254 -35.71375048 141.04295325 -36.0625 139.5625 C-36.25972656 138.73878906 -36.45695312 137.91507813 -36.66015625 137.06640625 C-36.82837891 136.04353516 -36.82837891 136.04353516 -37 135 C-36 134 -36 134 -33.68334961 133.88647461 C-32.68311768 133.89171143 -31.68288574 133.89694824 -30.65234375 133.90234375 C-29.57275391 133.90556641 -28.49316406 133.90878906 -27.38085938 133.91210938 C-25.67639648 133.92467773 -25.67639648 133.92467773 -23.9375 133.9375 C-22.22723633 133.94426758 -22.22723633 133.94426758 -20.48242188 133.95117188 C-17.65489649 133.96300253 -14.8274736 133.9794859 -12 134 C-12 133.34 -12 132.68 -12 132 C-11.32195312 131.72027344 -10.64390625 131.44054687 -9.9453125 131.15234375 C0.33996398 126.72198228 8.76144938 122.17603512 14 112 C14.72628921 110.76913092 15.45533137 109.53988088 16.1875 108.3125 C22.38717739 96.98205512 22.02286501 83.54176307 20 71 C19.34 70.67 18.68 70.34 18 70 C18 66.7 18 63.4 18 60 C17.34 60 16.68 60 16 60 C14.76078698 57.02588876 13.69941596 54.14737182 13 51 C12.01 51 11.02 51 10 51 C8.5625 48.875 8.5625 48.875 7 46 C4.16225434 40.98908611 1.28469798 38.5833666 -3.875 36.25 C-4.47441406 35.95996094 -5.07382813 35.66992188 -5.69140625 35.37109375 C-19.57847928 28.77398097 -34.44505111 28.01294081 -49 33.03515625 C-54.80107231 35.29032311 -59.6370821 37.81488514 -64.37890625 41.86328125 C-66 43 -66 43 -69 43 C-69 43.99 -69 44.98 -69 46 C-69.99 46 -70.98 46 -72 46 C-72.10441406 46.72703125 -72.20882812 47.4540625 -72.31640625 48.203125 C-73.26315836 52.07669363 -75.31886369 54.83192547 -77.52734375 58.109375 C-81.38305332 65.67761128 -81.2877832 73.67121672 -81.1875 82 C-81.18685547 83.04800781 -81.18621094 84.09601563 -81.18554688 85.17578125 C-81.60494619 89.93268485 -81.60494619 89.93268485 -80 94 C-79.95907063 96.33297433 -79.95758277 98.66705225 -80 101 C-79.01 101 -78.02 101 -77 101 C-76.75765625 101.65226562 -76.5153125 102.30453125 -76.265625 102.9765625 C-74.019095 108.91130818 -74.019095 108.91130818 -70.75 114.3125 C-68.85721405 117.21927842 -68.60103158 118.6087684 -69 122 C-68.0925 122.226875 -67.185 122.45375 -66.25 122.6875 C-62.52482554 124.19189738 -61.16557398 125.66834773 -59 129 C-59 129.66 -59 130.32 -59 131 C-58.34 131 -57.68 131 -57 131 C-57 132.32 -57 133.64 -57 135 C-56.21625 135.2475 -55.4325 135.495 -54.625 135.75 C-51.59062001 137.19494285 -51.32970275 138.05565819 -50 141 C-49.01 141.33 -48.02 141.66 -47 142 C-45.04457812 144.98459129 -45 146.26414791 -45 150 C-44.01 150.33 -43.02 150.66 -42 151 C-40.68359375 152.99609375 -40.68359375 152.99609375 -39.4375 155.4375 C-38.08610241 158.06030591 -37.0968741 159.9031259 -35 162 C-35 162.99 -35 163.98 -35 165 C-34.01 165.33 -33.02 165.66 -32 166 C-32 166.66 -32 167.32 -32 168 C-36.62 168 -41.24 168 -46 168 C-46 167.34 -46 166.68 -46 166 C-48.97851562 165.70703125 -48.97851562 165.70703125 -51.95703125 165.4140625 C-54 165 -54 165 -57 163 C-58.093125 162.855625 -59.18625 162.71125 -60.3125 162.5625 C-64.09747562 161.98513084 -66.68308146 160.8607104 -70 159 C-70 158.34 -70 157.68 -70 157 C-70.825 157.165 -71.65 157.33 -72.5 157.5 C-77.27620566 156.81768491 -78.86672879 154.48040874 -82.05078125 151.0234375 C-84.05334477 148.79991589 -84.05334477 148.79991589 -87.1875 146.875 C-90.4999266 144.6667156 -92.53756601 142.11044294 -95 139 C-95.763125 138.319375 -96.52625 137.63875 -97.3125 136.9375 C-99 135 -99 135 -99.25 132.25 C-99.1675 131.5075 -99.085 130.765 -99 130 C-99.99 129.67 -100.98 129.34 -102 129 C-108.43161854 123.73329196 -110.53577337 113.86846755 -112.2265625 106.1171875 C-112.85957379 103.56596017 -113.63794937 101.31018542 -114.5625 98.86328125 C-116.42699466 93.35606323 -116.45340797 88.08213435 -116.375 82.3125 C-116.36702393 81.25683838 -116.35904785 80.20117676 -116.35083008 79.11352539 C-116.15857382 68.53456394 -114.78424075 58.56848149 -110 49 C-109.34 49 -108.68 49 -108 49 C-108 46.69 -108 44.38 -108 42 C-106.515 41.505 -106.515 41.505 -105 41 C-104.38932856 39.14255793 -104.38932856 39.14255793 -104 37 C-103.36345658 35.6520257 -102.70394612 34.31403276 -102 33 C-101.34 33 -100.68 33 -100 33 C-99.67 32.01 -99.34 31.02 -99 30 C-98.34 30 -97.68 30 -97 30 C-96.90976563 29.4225 -96.81953125 28.845 -96.7265625 28.25 C-94.53721236 21.47007699 -86.99593833 17.11327567 -81 14 C-80.2575 13.4225 -79.515 12.845 -78.75 12.25 C-77 11 -77 11 -74 11 C-74 10.01 -74 9.02 -74 8 C-69.73185924 5.70977813 -65.66660818 4.26552086 -61 3 C-59.54129261 2.45934148 -58.08297833 1.9176215 -56.625 1.375 C-51.94769808 -0.22703629 -47.91733621 -0.23415887 -43 0 C-43 -0.66 -43 -1.32 -43 -2 C-32.48684794 -7.25657603 -10.94625457 -3.58215111 0 0 Z " fill="#FCFCFC" transform="translate(158,47)"/>
<path d="M0 0 C-3.35337646 1.14319652 -5.20893732 0.85351312 -8.5 -0.375 C-17.74346295 -3.76215937 -26.30875652 -3.38446335 -36 -2 C-36.33 -1.67 -36.66 -1.34 -37 -1 C-38.41223948 -0.81617544 -39.83051044 -0.67765727 -41.25 -0.5625 C-44.8189108 -0.20959335 -47.73935345 0.4222678 -51 2 C-51 2.66 -51 3.32 -51 4 C-53.04229203 5.8153707 -54.6825339 6.90561819 -57.3125 7.6875 C-61.68359412 9.82222039 -64.46600638 12.86889874 -67 17 C-68.06062727 20.40433547 -68.78745446 23.73010564 -69.39453125 27.2421875 C-70 30 -70 30 -72 32 C-72.37346668 35.20538403 -72.37346668 35.20538403 -72.4140625 38.9765625 C-72.43342865 39.66181 -72.4527948 40.3470575 -72.4727478 41.05307007 C-72.53256831 43.24358644 -72.57893756 45.4341553 -72.625 47.625 C-72.66317763 49.10939802 -72.70222924 50.59377384 -72.7421875 52.078125 C-72.83827084 55.71854685 -72.92229282 59.35913436 -73 63 C-72.34 63 -71.68 63 -71 63 C-70.87625 63.639375 -70.7525 64.27875 -70.625 64.9375 C-70.41875 65.618125 -70.2125 66.29875 -70 67 C-69.34 67.33 -68.68 67.66 -68 68 C-65.60550941 72.19035854 -64.22883794 76.34797065 -63 81 C-62.67 81.99 -62.34 82.98 -62 84 C-61.34 84 -60.68 84 -60 84 C-59.34 85.65 -58.68 87.3 -58 89 C-60.875 88.375 -60.875 88.375 -64 87 C-64.7323893 85.02312106 -65.38874327 83.01762476 -66 81 C-67.52190589 77.8655047 -69.13632439 74.79096199 -70.7578125 71.70703125 C-72 69 -72 69 -72 66 C-72.99 66 -73.98 66 -75 66 C-75.2165625 64.2984375 -75.2165625 64.2984375 -75.4375 62.5625 C-75.61171478 59.19222799 -75.61171478 59.19222799 -77 58 C-77.25531383 54.34064478 -77.18524466 50.6671861 -77.1875 47 C-77.19974609 45.98292969 -77.21199219 44.96585938 -77.22460938 43.91796875 C-77.24082654 35.49585288 -76.75616331 27.9318066 -72 20.75 C-69.92252088 17.57145694 -68.31597563 14.56831853 -67 11 C-66.01 11 -65.02 11 -64 11 C-64 10.01 -64 9.02 -64 8 C-62.33984375 7.08854167 -60.6796875 6.17708333 -59.01953125 5.265625 C-56.87314463 3.98929166 -56.87314463 3.98929166 -54.69140625 2.02734375 C-51.60761214 -0.29557228 -48.76709526 -1.42432254 -45.125 -2.6875 C-43.95195313 -3.10386719 -42.77890625 -3.52023438 -41.5703125 -3.94921875 C-28.05794514 -7.92605335 -12.01335729 -7.83479823 0 0 Z " fill="#575768" transform="translate(153,82)"/>
<path d="M0 0 C2.04119788 1.61594832 4.04072937 3.2856382 6 5 C6 5.66 6 6.32 6 7 C6.99 7.33 7.98 7.66 9 8 C9.495 9.485 9.495 9.485 10 11 C10.78375 11.20625 11.5675 11.4125 12.375 11.625 C15.42829577 13.2243454 15.62628501 13.8055617 16.75 16.9375 C19.67223897 27.33868956 19.22264716 38.29173199 19 49 C18.98324219 50.13695312 18.96648437 51.27390625 18.94921875 52.4453125 C18.69686582 58.19895928 18.10702578 61.85539612 14.3359375 66.26953125 C12.25248154 68.96827684 11.14887759 72.03047754 9.89453125 75.1796875 C9 77 9 77 7 78 C5.86649466 80.01669827 5.86649466 80.01669827 5 82 C4.34 82 3.68 82 3 82 C2.505 83.485 2.505 83.485 2 85 C0.35 85 -1.3 85 -3 85 C-3.495 86.485 -3.495 86.485 -4 88 C-5.99609375 88.87890625 -5.99609375 88.87890625 -8.4375 89.5625 C-12.09858228 90.58507259 -12.09858228 90.58507259 -15 93 C-17.56057017 93.47461369 -20.04313037 93.83916688 -22.625 94.125 C-23.65560547 94.25455078 -23.65560547 94.25455078 -24.70703125 94.38671875 C-29.49882996 94.95310396 -34.17604729 95.0758824 -39 95 C-38.505 95.78375 -38.01 96.5675 -37.5 97.375 C-36 100 -36 100 -36 102 C-35.01 102.33 -34.02 102.66 -33 103 C-31.94410931 104.63183107 -30.9563874 106.30792999 -30 108 C-28.37132584 110.36231116 -26.68515699 112.67721604 -25 115 C-25.33 115.66 -25.66 116.32 -26 117 C-29.75376152 115.74874616 -30.24073289 114.4347596 -32 111 C-32 110.34 -32 109.68 -32 109 C-32.99 108.67 -33.98 108.34 -35 108 C-35 106.68 -35 105.36 -35 104 C-35.99 104 -36.98 104 -38 104 C-38 103.34 -38 102.68 -38 102 C-38.66 102 -39.32 102 -40 102 C-40.36116046 100.5225254 -40.71375048 99.04295325 -41.0625 97.5625 C-41.25972656 96.73878906 -41.45695312 95.91507812 -41.66015625 95.06640625 C-41.77230469 94.38449219 -41.88445312 93.70257813 -42 93 C-41 92 -41 92 -38.68334961 91.88647461 C-37.68311768 91.89171143 -36.68288574 91.89694824 -35.65234375 91.90234375 C-34.57275391 91.90556641 -33.49316406 91.90878906 -32.38085938 91.91210938 C-30.67639648 91.92467773 -30.67639648 91.92467773 -28.9375 91.9375 C-27.22723633 91.94426758 -27.22723633 91.94426758 -25.48242188 91.95117188 C-22.65489649 91.96300253 -19.8274736 91.9794859 -17 92 C-17 91.34 -17 90.68 -17 90 C-16.32195312 89.72027344 -15.64390625 89.44054687 -14.9453125 89.15234375 C-4.66003602 84.72198228 3.76144938 80.17603512 9 70 C9.72628921 68.76913092 10.45533137 67.53988088 11.1875 66.3125 C17.38717739 54.98205512 17.02286501 41.54176307 15 29 C14.34 28.67 13.68 28.34 13 28 C13 24.7 13 21.4 13 18 C12.34 18 11.68 18 11 18 C9.76078698 15.02588876 8.69941596 12.14737182 8 9 C7.01 9 6.02 9 5 9 C3.02431822 6.15501823 1.50098594 3.11743233 0 0 Z " fill="#A8A8B1" transform="translate(163,89)"/>
<path d="M0 0 C0.99 0.33 1.98 0.66 3 1 C3 1.99 3 2.98 3 4 C3.66 4 4.32 4 5 4 C5.33 5.65 5.66 7.3 6 9 C6.66 9 7.32 9 8 9 C8.33 10.65 8.66 12.3 9 14 C9.66 14 10.32 14 11 14 C15.03765896 22.62590778 16.36075576 31.67025884 18 41 C18.66 41 19.32 41 20 41 C20.73055924 73.05094518 20.73055924 73.05094518 13.18359375 86.78125 C11.93004715 89.01790091 11.93004715 89.01790091 11.01171875 91.60546875 C9.65955915 94.80575382 7.53011436 96.66963151 5 99 C5.60183749 96.97954558 6.27306096 94.97888961 7 93 C7.99 92.505 7.99 92.505 9 92 C9.73075648 89.6859378 10.40138258 87.35171131 11 85 C11.66 85 12.32 85 13 85 C13 81.37 13 77.74 13 74 C13.66 74 14.32 74 15 74 C15.05019229 69.68076 15.08608563 65.36168355 15.10986328 61.04223633 C15.11979663 59.57899003 15.13334793 58.11576289 15.15087891 56.65258789 C15.65827958 39.62592215 15.65827958 39.62592215 10 24 C9.8125 21.1875 9.8125 21.1875 10 19 C9.01 19 8.02 19 7 19 C6.6596875 17.0509375 6.6596875 17.0509375 6.3125 15.0625 C5.30796641 10.43577961 3.44926004 6.78836354 1.0234375 2.75 C0 1 0 1 0 0 Z " fill="#CDCDD2" transform="translate(197,76)"/>
<path d="M0 0 C1.67445894 0.64684578 3.34391844 1.3074568 5 2 C2.28007469 3.04612512 1.12861369 3.04368366 -1.6796875 2.08984375 C-5.31367024 0.89704236 -8.70360445 0.38927107 -12.5 -0.0625 C-13.18835938 -0.14483887 -13.87671875 -0.22717773 -14.5859375 -0.31201172 C-21.37522812 -1.09694573 -28.17772027 -1.59492714 -35 -2 C-35 -1.34 -35 -0.68 -35 0 C-35.94101563 0.12117188 -36.88203125 0.24234375 -37.8515625 0.3671875 C-39.09679687 0.53476562 -40.34203125 0.70234375 -41.625 0.875 C-43.46964844 1.11863281 -43.46964844 1.11863281 -45.3515625 1.3671875 C-48.97032413 1.9012426 -48.97032413 1.9012426 -52.2109375 3.0703125 C-55 4 -55 4 -59 4 C-59 4.66 -59 5.32 -59 6 C-60.794375 6.0928125 -60.794375 6.0928125 -62.625 6.1875 C-67.28490632 6.74537611 -69.51149242 8.89067803 -73 12 C-76.375 13.3125 -76.375 13.3125 -79 14 C-79 14.99 -79 15.98 -79 17 C-79.99 17 -80.98 17 -82 17 C-82.33 17.99 -82.66 18.98 -83 20 C-83.86625 20.2475 -84.7325 20.495 -85.625 20.75 C-90.21293571 22.44923545 -92.76801567 25.42378065 -96 29 C-96 26 -96 26 -94.49609375 24.09765625 C-90.22662948 19.87680069 -86.32117813 16.76291941 -81 14 C-80.2575 13.4225 -79.515 12.845 -78.75 12.25 C-77 11 -77 11 -74 11 C-74 10.01 -74 9.02 -74 8 C-69.73185924 5.70977813 -65.66660818 4.26552086 -61 3 C-59.54129261 2.45934148 -58.08297833 1.9176215 -56.625 1.375 C-51.94769808 -0.22703629 -47.91733621 -0.23415887 -43 0 C-43 -0.66 -43 -1.32 -43 -2 C-32.50525243 -7.24737379 -10.91214598 -3.57184358 0 0 Z " fill="#888894" transform="translate(158,47)"/>
<path d="M0 0 C0.33 0 0.66 0 1 0 C1.45019307 4.80205946 -0.05565572 8.68818988 -2 13 C-2.33 13.33 -2.66 13.66 -3 14 C-3.15888092 16.28988781 -3.25138073 18.58443441 -3.31640625 20.87890625 C-3.33718735 21.5655687 -3.35796844 22.25223114 -3.37937927 22.95970154 C-3.44494143 25.16052935 -3.50379015 27.36147975 -3.5625 29.5625 C-3.60567892 31.05144514 -3.649293 32.54037773 -3.69335938 34.02929688 C-3.8006293 37.68606553 -3.90187772 41.34297318 -4 45 C-3.34 45 -2.68 45 -2 45 C-1.87625 45.639375 -1.7525 46.27875 -1.625 46.9375 C-1.41875 47.618125 -1.2125 48.29875 -1 49 C-0.34 49.33 0.32 49.66 1 50 C3.39449059 54.19035854 4.77116206 58.34797065 6 63 C6.495 64.485 6.495 64.485 7 66 C7.66 66 8.32 66 9 66 C9.66 67.65 10.32 69.3 11 71 C8.125 70.375 8.125 70.375 5 69 C4.26445537 67.0242929 3.60819855 65.01854873 3 63 C2.03489741 60.9622698 1.03411188 58.94109177 0 56.9375 C-7.21143259 42.92929219 -9.20074358 26.63917657 -5.70703125 11.15625 C-4.65455571 7.94649034 -3.03218837 5.687733 -1 3 C-0.67 2.01 -0.34 1.02 0 0 Z " fill="#2D2D43" transform="translate(84,100)"/>
<path d="M0 0 C0.66 0.33 1.32 0.66 2 1 C-0.64444444 5.65925926 -0.64444444 5.65925926 -2.5 7.4375 C-6.3897286 11.48930062 -7.74208037 17.09174203 -9.1875 22.375 C-9.53167969 23.62023437 -9.87585937 24.86546875 -10.23046875 26.1484375 C-10.61138672 27.55996094 -10.61138672 27.55996094 -11 29 C-11.66 29 -12.32 29 -13 29 C-12.979375 30.25683594 -12.95875 31.51367188 -12.9375 32.80859375 C-12.9375 38.26724458 -13.44119014 43.63675832 -14 49.0625 C-14.09539063 50.02349609 -14.19078125 50.98449219 -14.2890625 51.97460938 C-14.5221192 54.31682923 -14.75916349 56.65856955 -15 59 C-14.34 59 -13.68 59 -13 59 C-13 63.62 -13 68.24 -13 73 C-13.66 72.67 -14.32 72.34 -15 72 C-17.16624288 65.46299852 -17.34865431 59.22111479 -17.3125 52.375 C-17.30903564 51.31482666 -17.30557129 50.25465332 -17.30200195 49.16235352 C-17.15533818 38.54989228 -15.80042801 28.60085602 -11 19 C-10.34 19 -9.68 19 -9 19 C-9 16.69 -9 14.38 -9 12 C-8.01 11.67 -7.02 11.34 -6 11 C-5.38932856 9.14255793 -5.38932856 9.14255793 -5 7 C-4.36345658 5.6520257 -3.70394612 4.31403276 -3 3 C-2.34 3 -1.68 3 -1 3 C-0.67 2.01 -0.34 1.02 0 0 Z " fill="#7B7B88" transform="translate(59,77)"/>
<path d="M0 0 C2.04119788 1.61594832 4.04072937 3.2856382 6 5 C6 5.66 6 6.32 6 7 C6.99 7.33 7.98 7.66 9 8 C9.33 8.99 9.66 9.98 10 11 C10.78375 11.20625 11.5675 11.4125 12.375 11.625 C15.42829577 13.2243454 15.62628501 13.8055617 16.75 16.9375 C18.24605609 22.26244539 18.77428158 27.48699854 19 33 C19.05285156 34.26585937 19.10570312 35.53171875 19.16015625 36.8359375 C19.38948557 45.10966278 19.07827086 53.19135878 16 61 C15.01 61.495 15.01 61.495 14 62 C14.2165625 60.78376953 14.2165625 60.78376953 14.4375 59.54296875 C16.16925491 49.21256965 16.67237712 39.36873816 15 29 C14.34 28.67 13.68 28.34 13 28 C13 24.7 13 21.4 13 18 C12.34 18 11.68 18 11 18 C9.76078698 15.02588876 8.69941596 12.14737182 8 9 C7.01 9 6.02 9 5 9 C3.02431822 6.15501823 1.50098594 3.11743233 0 0 Z " fill="#5D5D6E" transform="translate(163,89)"/>
<path d="M0 0 C0.99 0.33 1.98 0.66 3 1 C3 1.99 3 2.98 3 4 C3.66 4 4.32 4 5 4 C5.33 5.65 5.66 7.3 6 9 C6.66 9 7.32 9 8 9 C8.33 10.65 8.66 12.3 9 14 C9.66 14 10.32 14 11 14 C15.03765896 22.62590778 16.36075576 31.67025884 18 41 C18.66 41 19.32 41 20 41 C20 49.25 20 57.5 20 66 C19.67 66 19.34 66 19 66 C18.95101562 64.69804687 18.90203125 63.39609375 18.8515625 62.0546875 C18.77649371 60.32810529 18.70094767 58.60154378 18.625 56.875 C18.57859375 55.59109375 18.57859375 55.59109375 18.53125 54.28125 C18.30994971 49.48641049 17.73422223 45.52492468 16 41 C15.66333285 39.52614604 15.3485078 38.04701669 15.0625 36.5625 C13.63455138 29.75018904 13.63455138 29.75018904 10 24 C9.95936168 22.33382885 9.957279 20.66611905 10 19 C9.01 19 8.02 19 7 19 C6.6596875 17.0509375 6.6596875 17.0509375 6.3125 15.0625 C5.30796641 10.43577961 3.44926004 6.78836354 1.0234375 2.75 C0 1 0 1 0 0 Z " fill="#656574" transform="translate(197,76)"/>
<path d="M0 0 C1.25361328 0.00322266 2.50722656 0.00644531 3.79882812 0.00976562 C5.76432617 0.02233398 5.76432617 0.02233398 7.76953125 0.03515625 C9.10481606 0.04017308 10.44010266 0.04473566 11.77539062 0.04882812 C15.04431598 0.0606293 18.31315116 0.07709328 21.58203125 0.09765625 C21.58203125 0.42765625 21.58203125 0.75765625 21.58203125 1.09765625 C12.01203125 1.42765625 2.44203125 1.75765625 -7.41796875 2.09765625 C-7.41796875 2.75765625 -7.41796875 3.41765625 -7.41796875 4.09765625 C-9.33609375 4.22140625 -9.33609375 4.22140625 -11.29296875 4.34765625 C-15.94644818 4.85251487 -19.78116181 6.28126677 -24.0625 8.11328125 C-28.69161516 10.04783684 -33.49362959 11.20232186 -38.41796875 12.09765625 C-38.41796875 13.08765625 -38.41796875 14.07765625 -38.41796875 15.09765625 C-39.99578125 15.99484375 -39.99578125 15.99484375 -41.60546875 16.91015625 C-44.56657353 18.60135634 -47.50157811 20.33014677 -50.41796875 22.09765625 C-50.08796875 20.44765625 -49.75796875 18.79765625 -49.41796875 17.09765625 C-47.76796875 16.76765625 -46.11796875 16.43765625 -44.41796875 16.09765625 C-44.41796875 15.43765625 -44.41796875 14.77765625 -44.41796875 14.09765625 C-42.76796875 14.09765625 -41.11796875 14.09765625 -39.41796875 14.09765625 C-39.41796875 13.10765625 -39.41796875 12.11765625 -39.41796875 11.09765625 C-38.42796875 11.09765625 -37.43796875 11.09765625 -36.41796875 11.09765625 C-36.41796875 10.43765625 -36.41796875 9.77765625 -36.41796875 9.09765625 C-34.3368819 8.42400964 -32.25300165 7.75898827 -30.16796875 7.09765625 C-29.0078125 6.72640625 -27.84765625 6.35515625 -26.65234375 5.97265625 C-23.41796875 5.09765625 -23.41796875 5.09765625 -19.41796875 5.09765625 C-19.41796875 4.43765625 -19.41796875 3.77765625 -19.41796875 3.09765625 C-18.73089844 2.96488281 -18.04382813 2.83210938 -17.3359375 2.6953125 C-15.98435547 2.43041016 -15.98435547 2.43041016 -14.60546875 2.16015625 C-13.71214844 1.98613281 -12.81882813 1.81210937 -11.8984375 1.6328125 C-4.24133832 -0.01919158 -4.24133832 -0.01919158 0 0 Z " fill="#515163" transform="translate(122.41796875,42.90234375)"/>
<path d="M0 0 C0.66 0.33 1.32 0.66 2 1 C1.49210937 1.42410156 0.98421875 1.84820312 0.4609375 2.28515625 C-6.86354193 8.52605164 -11.92963589 14.25625489 -16 23 C-16.33 23.33 -16.66 23.66 -17 24 C-20.76397626 36.85796271 -18.8686328 50.00299152 -17 63 C-17.66 63 -18.32 63 -19 63 C-19.144375 61.865625 -19.28875 60.73125 -19.4375 59.5625 C-19.61171478 56.19222799 -19.61171478 56.19222799 -21 55 C-21.25531383 51.34064478 -21.18524466 47.6671861 -21.1875 44 C-21.19974609 42.98292969 -21.21199219 41.96585938 -21.22460938 40.91796875 C-21.24082654 32.49585288 -20.75616331 24.9318066 -16 17.75 C-13.92252088 14.57145694 -12.31597563 11.56831853 -11 8 C-10.01 8 -9.02 8 -8 8 C-8 7.01 -8 6.02 -8 5 C-6.20963542 3.99088542 -4.41927083 2.98177083 -2.62890625 1.97265625 C-1.02121854 1.1027487 -1.02121854 1.1027487 0 0 Z " fill="#ADADB5" transform="translate(97,85)"/>
<path d="M0 0 C0.74886475 0.00523682 1.49772949 0.01047363 2.26928711 0.01586914 C3.07817383 0.0190918 3.88706055 0.02231445 4.72045898 0.02563477 C5.5705957 0.03401367 6.42073242 0.04239258 7.29663086 0.05102539 C8.15063477 0.05553711 9.00463867 0.06004883 9.88452148 0.06469727 C12.00108749 0.07652166 14.11761771 0.0944577 16.23413086 0.11352539 C10.65441247 2.94949796 6.45935716 3.21727916 0.23413086 3.11352539 C0.72913086 3.89727539 1.22413086 4.68102539 1.73413086 5.48852539 C3.23413086 8.11352539 3.23413086 8.11352539 3.23413086 10.11352539 C4.22413086 10.44352539 5.21413086 10.77352539 6.23413086 11.11352539 C7.29002155 12.74535646 8.27774346 14.42145538 9.23413086 16.11352539 C10.86280502 18.47583655 12.54897387 20.79074143 14.23413086 23.11352539 C13.90413086 23.77352539 13.57413086 24.43352539 13.23413086 25.11352539 C9.48036934 23.86227155 8.99339797 22.54828499 7.23413086 19.11352539 C7.23413086 18.45352539 7.23413086 17.79352539 7.23413086 17.11352539 C6.24413086 16.78352539 5.25413086 16.45352539 4.23413086 16.11352539 C4.23413086 14.79352539 4.23413086 13.47352539 4.23413086 12.11352539 C3.24413086 12.11352539 2.25413086 12.11352539 1.23413086 12.11352539 C1.23413086 11.45352539 1.23413086 10.79352539 1.23413086 10.11352539 C0.57413086 10.11352539 -0.08586914 10.11352539 -0.76586914 10.11352539 C-1.1270296 8.6360508 -1.47961962 7.15647864 -1.82836914 5.67602539 C-2.0255957 4.85231445 -2.22282227 4.02860352 -2.42602539 3.17993164 C-2.59424805 2.15706055 -2.59424805 2.15706055 -2.76586914 1.11352539 C-1.76586914 0.11352539 -1.76586914 0.11352539 0 0 Z " fill="#646473" transform="translate(123.765869140625,180.886474609375)"/>
<path d="M0 0 C8.50624131 2.59912929 15.49108083 4.76954359 21 12 C23.0824644 13.63449241 25.21352077 15.16227075 27.390625 16.66796875 C27.92171875 17.10753906 28.4528125 17.54710938 29 18 C29 18.66 29 19.32 29 20 C29.99 20.33 30.98 20.66 32 21 C33.1875 23.5625 33.1875 23.5625 34 26 C33.01 25.67 32.02 25.34 31 25 C31 24.01 31 23.02 31 22 C29.68 21.67 28.36 21.34 27 21 C27 20.34 27 19.68 27 19 C26.34 19 25.68 19 25 19 C25 18.34 25 17.68 25 17 C24.443125 16.9175 23.88625 16.835 23.3125 16.75 C20.30005197 15.77298983 18.40617667 14.02625404 16 12 C15.34 11.67 14.68 11.34 14 11 C14 10.34 14 9.68 14 9 C13.2575 8.9175 12.515 8.835 11.75 8.75 C8.4245173 7.84305017 7.33543813 6.48140301 5 4 C3.34338239 2.98343919 1.67888441 1.97934924 0 1 C0 0.67 0 0.34 0 0 Z " fill="#C3C3C9" transform="translate(163,50)"/>
<path d="M0 0 C1.12535156 0.00580078 1.12535156 0.00580078 2.2734375 0.01171875 C3.02367187 0.00785156 3.77390625 0.00398438 4.546875 0 C10.14682697 0.01010822 10.14682697 0.01010822 11.2734375 1.13671875 C12.95527698 1.36958883 14.6446791 1.54936041 16.3359375 1.69921875 C17.25503906 1.78300781 18.17414063 1.86679688 19.12109375 1.953125 C20.18650391 2.04400391 20.18650391 2.04400391 21.2734375 2.13671875 C21.7684375 3.62171875 21.7684375 3.62171875 22.2734375 5.13671875 C24.6165184 6.25757187 24.6165184 6.25757187 27.2734375 7.13671875 C28.61393802 7.78885414 29.95005118 8.45051844 31.2734375 9.13671875 C30.9434375 9.79671875 30.6134375 10.45671875 30.2734375 11.13671875 C29.25636719 10.52183594 29.25636719 10.52183594 28.21875 9.89453125 C13.44798715 1.34303697 -1.24593651 2.07055578 -17.7265625 5.13671875 C-17.3965625 4.14671875 -17.0665625 3.15671875 -16.7265625 2.13671875 C-16.01628906 2.07613281 -15.30601563 2.01554687 -14.57421875 1.953125 C-13.19556641 1.82744141 -13.19556641 1.82744141 -11.7890625 1.69921875 C-10.87253906 1.61800781 -9.95601563 1.53679687 -9.01171875 1.453125 C-5.82221587 1.01150152 -3.55486115 0.00641672 0 0 Z " fill="#BFBFC6" transform="translate(126.7265625,73.86328125)"/>
<path d="M0 0 C0 4.83022158 -2.53449893 8.40460225 -5.71875 11.87109375 C-6.93232259 13.06666844 -8.15740284 14.2506916 -9.39453125 15.421875 C-11.13783277 17.04579278 -11.13783277 17.04579278 -12.75 19.4375 C-13.1625 19.953125 -13.575 20.46875 -14 21 C-14.99 21 -15.98 21 -17 21 C-17 21.66 -17 22.32 -17 23 C-23 26 -29 29 -35 32 C-36.00933594 32.58201172 -36.00933594 32.58201172 -37.0390625 33.17578125 C-39 34 -39 34 -42 33 C-41 31 -41 31 -38.31640625 30.05859375 C-37.22199219 29.70925781 -36.12757813 29.35992187 -35 29 C-32.96150784 28.05814841 -30.94027146 27.07809894 -28.9375 26.0625 C-27.93589844 25.55847656 -26.93429688 25.05445313 -25.90234375 24.53515625 C-23.98560866 23.52132463 -22.10014586 22.44575129 -20.25390625 21.30859375 C-18 20 -18 20 -16 20 C-15.67 19.01 -15.34 18.02 -15 17 C-13.0533282 15.15600979 -10.99199281 13.50530088 -8.91015625 11.81640625 C-6.96341424 9.96520986 -6.13497652 8.39719256 -5 6 C-4.34 5.67 -3.68 5.34 -3 5 C-1.9590934 3.35857037 -0.95495674 1.69287785 0 0 Z " fill="#7E7E8C" transform="translate(201,175)"/>
<path d="M0 0 C1.32 0.33 2.64 0.66 4 1 C-7.21359223 10 -7.21359223 10 -14 10 C-14 10.66 -14 11.32 -14 12 C-21.92 12.33 -29.84 12.66 -38 13 C-37.67 14.98 -37.34 16.96 -37 19 C-37.99 18.67 -38.98 18.34 -40 18 C-40.04254356 16.00045254 -40.04080783 13.99958364 -40 12 C-38.45429669 10.45429669 -36.9306528 10.80175898 -34.78125 10.71875 C-33.93175781 10.68136719 -33.08226563 10.64398438 -32.20703125 10.60546875 C-29.5 10.5 -29.5 10.5 -26.79296875 10.39453125 C-25.94347656 10.35714844 -25.09398437 10.31976563 -24.21875 10.28125 C-23.0421582 10.23581055 -23.0421582 10.23581055 -21.84179688 10.18945312 C-19.98373804 10.19408532 -19.98373804 10.19408532 -19 9 C-17.48530552 8.76807135 -15.96245438 8.58784762 -14.4375 8.4375 C-13.61121094 8.35371094 -12.78492188 8.26992187 -11.93359375 8.18359375 C-11.29550781 8.12300781 -10.65742188 8.06242188 -10 8 C-10 7.34 -10 6.68 -10 6 C-8.02 5.67 -6.04 5.34 -4 5 C-4 4.34 -4 3.68 -4 3 C-3.01 2.67 -2.02 2.34 -1 2 C-0.67 1.34 -0.34 0.68 0 0 Z " fill="#1A1A32" transform="translate(160,169)"/>
<path d="M0 0 C0.66 0 1.32 0 2 0 C2 0.66 2 1.32 2 2 C5.40790332 3.22334991 8.77362257 4.19868173 12.3125 4.9375 C17.00630112 5.93533187 21.4814723 7.39768521 26 9 C26 9.66 26 10.32 26 11 C30.62 11 35.24 11 40 11 C40 11.33 40 11.66 40 12 C33.4 12 26.8 12 20 12 C20 11.01 20 10.02 20 9 C17.03 9 14.06 9 11 9 C11 8.01 11 7.02 11 6 C10.29875 5.87625 9.5975 5.7525 8.875 5.625 C5.82343613 4.96161655 2.94659062 4.02788045 0 3 C0 2.01 0 1.02 0 0 Z " fill="#4E4E60" transform="translate(86,204)"/>
<path d="M0 0 C2 1.375 2 1.375 4 3 C4 3.66 4 4.32 4 5 C4.66 5 5.32 5 6 5 C6 6.32 6 7.64 6 9 C7.175625 9.37125 7.175625 9.37125 8.375 9.75 C11.40937999 11.19494285 11.67029725 12.05565819 13 15 C13.99 15.33 14.98 15.66 16 16 C17.95542188 18.98459129 18 20.26414791 18 24 C18.99 24.33 19.98 24.66 21 25 C21.6875 27.0625 21.6875 27.0625 22 29 C21.34 29 20.68 29 20 29 C20 28.01 20 27.02 20 26 C19.38382813 25.91363281 18.76765625 25.82726562 18.1328125 25.73828125 C16 25 16 25 14.8046875 23.29296875 C14.49789062 22.59816406 14.19109375 21.90335938 13.875 21.1875 C13.56304687 20.50042969 13.25109375 19.81335938 12.9296875 19.10546875 C12.29899693 17.6771401 11.67149485 16.24740009 11.046875 14.81640625 C9.56657823 12.24798088 7.74930179 11.86820057 5 11 C5 9.68 5 8.36 5 7 C4.01 6.67 3.02 6.34 2 6 C0.8125 2.9375 0.8125 2.9375 0 0 Z " fill="#505062" transform="translate(95,173)"/>
<path d="M0 0 C0.33 1.32 0.66 2.64 1 4 C1.66 4 2.32 4 3 4 C3.185625 4.9590625 3.185625 4.9590625 3.375 5.9375 C3.684375 6.9584375 3.684375 6.9584375 4 8 C4.66 8.33 5.32 8.66 6 9 C8.39449059 13.19035854 9.77116206 17.34797065 11 22 C11.33 22.99 11.66 23.98 12 25 C12.66 25 13.32 25 14 25 C14.66 26.65 15.32 28.3 16 30 C13.125 29.375 13.125 29.375 10 28 C9.26445537 26.0242929 8.60819855 24.01854873 8 22 C7.03489741 19.9622698 6.03411188 17.94109177 5 15.9375 C-0.32017487 5.60306031 -0.32017487 5.60306031 0 0 Z " fill="#3F3F52" transform="translate(79,141)"/>
<path d="M0 0 C2.24301727 1.09542704 4.33154495 2.21252882 6.4375 3.5625 C9.02061794 5.01156616 11.08759012 5.58394145 14 6 C14 6.66 14 7.32 14 8 C18.03410853 9.951988 21.7030356 10.36443944 26.109375 10.65625 C26.73328125 10.7696875 27.3571875 10.883125 28 11 C28.33 11.66 28.66 12.32 29 13 C31.05175405 13.65151097 31.05175405 13.65151097 33.4375 14.0625 C37.832021 14.9160105 37.832021 14.9160105 40 16 C40 16.66 40 17.32 40 18 C38.68 18 37.36 18 36 18 C36 17.34 36 16.68 36 16 C34.01432292 15.8046875 32.02864583 15.609375 30.04296875 15.4140625 C28 15 28 15 25 13 C23.906875 12.855625 22.81375 12.71125 21.6875 12.5625 C17.90252438 11.98513084 15.31691854 10.8607104 12 9 C12 8.34 12 7.68 12 7 C11.13375 7.144375 10.2675 7.28875 9.375 7.4375 C4.88937202 6.85602971 3.77514356 4.98633937 1.1015625 1.53125 C0.55628906 0.77328125 0.55628906 0.77328125 0 0 Z " fill="#C8C8CE" transform="translate(76,197)"/>
<path d="M0 0 C1.21510254 0.00531738 2.43020508 0.01063477 3.68212891 0.01611328 C4.90883301 0.01885254 6.13553711 0.0215918 7.39941406 0.02441406 C17.88497414 0.14541734 27.18640022 1.25312674 36.93212891 5.32861328 C34.20198646 6.37866807 33.04566881 6.36656898 30.22119141 5.42236328 C17.16535482 1.08075491 2.49429934 2.08482427 -11.06787109 2.32861328 C-7.8948697 -0.84438811 -4.33060584 0.03485028 0 0 Z " fill="#9696A1" transform="translate(126.06787109375,43.67138671875)"/>
<path d="M0 0 C2.04119788 1.61594832 4.04072937 3.2856382 6 5 C6 5.66 6 6.32 6 7 C6.99 7.33 7.98 7.66 9 8 C9.33 8.99 9.66 9.98 10 11 C10.78375 11.20625 11.5675 11.4125 12.375 11.625 C15.45311818 13.23734762 15.66628575 13.89807118 16.8125 17.0625 C18.18431918 21.80991919 18.23409098 26.08408937 18 31 C17.67 31 17.34 31 17 31 C16.72285156 30.02417969 16.44570312 29.04835938 16.16015625 28.04296875 C15.794306 26.75780249 15.42841864 25.47264679 15.0625 24.1875 C14.70285156 22.92292969 14.34320313 21.65835938 13.97265625 20.35546875 C13.01356066 15.8050078 13.01356066 15.8050078 9.9375 12.8125 C9.298125 12.544375 8.65875 12.27625 8 12 C8 11.01 8 10.02 8 9 C7.01 9 6.02 9 5 9 C3.02431822 6.15501823 1.50098594 3.11743233 0 0 Z " fill="#A0A0AA" transform="translate(163,89)"/>
<path d="M0 0 C2.56745756 -0.27996774 4.89054577 -0.37227696 7.45703125 -0.328125 C8.56699715 -0.32531525 8.56699715 -0.32531525 9.6993866 -0.32244873 C11.26716607 -0.31572046 12.83492854 -0.30179053 14.40258789 -0.28125 C16.79264074 -0.25025752 19.18203225 -0.24029447 21.57226562 -0.234375 C23.09636213 -0.22519774 24.62045198 -0.21481968 26.14453125 -0.203125 C27.21197319 -0.19675018 27.21197319 -0.19675018 28.30097961 -0.19024658 C31.98403301 -0.13773651 35.41680759 0.13087228 39 1 C39.495 2.485 39.495 2.485 40 4 C37.03 3.67 34.06 3.34 31 3 C31 2.34 31 1.68 31 1 C26.43726776 1.1390777 21.87488309 1.28743634 17.3125 1.4375 C16.01892578 1.47681641 14.72535156 1.51613281 13.39257812 1.55664062 C12.14541016 1.59853516 10.89824219 1.64042969 9.61328125 1.68359375 C7.89298706 1.73858032 7.89298706 1.73858032 6.13793945 1.79467773 C3.33006722 1.97840298 0.73774186 2.3699382 -2 3 C-1.34 2.01 -0.68 1.02 0 0 Z " fill="#1C1C33" transform="translate(113,42)"/>
<path d="M0 0 C0.33 0 0.66 0 1 0 C1.37004136 3.94710783 0.45541191 6.9123396 -1.01953125 10.5546875 C-1.76693213 12.41872316 -2.46360207 14.30318381 -3.13671875 16.1953125 C-5.36761733 22.37426819 -7.32666678 27.32666678 -12 32 C-12 29 -12 29 -11 26 C-10.34 25.67 -9.68 25.34 -9 25 C-8.26924352 22.6859378 -7.59861742 20.35171131 -7 18 C-6.34 18 -5.68 18 -5 18 C-5.04125 16.88625 -5.0825 15.7725 -5.125 14.625 C-5 11 -5 11 -3 9 C-2.40165446 7.47943382 -1.86493344 5.93387912 -1.375 4.375 C-1.11460937 3.55773437 -0.85421875 2.74046875 -0.5859375 1.8984375 C-0.39257812 1.27195313 -0.19921875 0.64546875 0 0 Z " fill="#8A8A96" transform="translate(215,143)"/>
<path d="M0 0 C0.33 0 0.66 0 1 0 C0.67 6.6 0.34 13.2 0 20 C0.66 20 1.32 20 2 20 C2 24.62 2 29.24 2 34 C0 33 0 33 -0.61669922 31.32666016 C-1.09117654 28.44655257 -1.12981174 25.69317375 -1.1328125 22.7734375 C-1.13410156 21.5771875 -1.13539062 20.3809375 -1.13671875 19.1484375 C-1.13285156 17.90320313 -1.12898438 16.65796875 -1.125 15.375 C-1.12886719 14.12203125 -1.13273437 12.8690625 -1.13671875 11.578125 C-1.13542969 10.38445312 -1.13414063 9.19078125 -1.1328125 7.9609375 C-1.13168457 6.86571777 -1.13055664 5.77049805 -1.12939453 4.64208984 C-1 2 -1 2 0 0 Z " fill="#B7B7BE" transform="translate(44,116)"/>
<path d="M0 0 C0.99 0.33 1.98 0.66 3 1 C3 1.99 3 2.98 3 4 C3.66 4 4.32 4 5 4 C5.33 5.65 5.66 7.3 6 9 C6.66 9 7.32 9 8 9 C8 10.98 8 12.96 8 15 C8.66 15 9.32 15 10 15 C13.07692308 21.4 13.07692308 21.4 12.6875 24.4375 C12.460625 24.953125 12.23375 25.46875 12 26 C10 24 10 24 9.875 21.375 C9.91625 20.59125 9.9575 19.8075 10 19 C9.01 19 8.02 19 7 19 C6.6596875 17.0509375 6.6596875 17.0509375 6.3125 15.0625 C5.30796641 10.43577961 3.44926004 6.78836354 1.0234375 2.75 C0 1 0 1 0 0 Z " fill="#BFBFC5" transform="translate(197,76)"/>
<path d="M0 0 C0.93423645 3.01031744 1.04449911 3.86650268 0 7 C-0.63850275 16.78542593 0.61157435 26.34300371 2 36 C1.34 36 0.68 36 0 36 C-0.144375 34.865625 -0.28875 33.73125 -0.4375 32.5625 C-0.61171478 29.19222799 -0.61171478 29.19222799 -2 28 C-2.25343003 24.25690241 -2.18523237 20.50065517 -2.1875 16.75 C-2.19974609 15.69941406 -2.21199219 14.64882812 -2.22460938 13.56640625 C-2.22654297 12.54933594 -2.22847656 11.53226563 -2.23046875 10.484375 C-2.23457764 9.55334961 -2.23868652 8.62232422 -2.24291992 7.66308594 C-1.98028495 4.78386754 -1.19623423 2.61826249 0 0 Z " fill="#91919C" transform="translate(78,112)"/>
<path d="M0 0 C0.99 0.33 1.98 0.66 3 1 C3 2.98 3 4.96 3 7 C3.66 7 4.32 7 5 7 C6.4783226 9.95664519 6.06032783 12.74229737 6 16 C6.66 16 7.32 16 8 16 C8.66 18.31 9.32 20.62 10 23 C7 22 7 22 5.68359375 19.8828125 C2.71598895 13.31501003 0.92639499 7.14845088 0 0 Z " fill="#C0C0C6" transform="translate(46,151)"/>
<path d="M0 0 C0.33 0 0.66 0 1 0 C2.41836776 10.81505416 3.90635542 23.8601988 -1 34 C-1.33 34 -1.66 34 -2 34 C-2.04241723 31.66705225 -2.04092937 29.33297433 -2 27 C-1.67 26.67 -1.34 26.34 -1 26 C-0.84193469 24.07521187 -0.748865 22.1450079 -0.68359375 20.21484375 C-0.64169922 19.04501953 -0.59980469 17.87519531 -0.55664062 16.66992188 C-0.49766602 14.82237305 -0.49766602 14.82237305 -0.4375 12.9375 C-0.39431641 11.70193359 -0.35113281 10.46636719 -0.30664062 9.19335938 C-0.20015802 6.12902665 -0.09814576 3.06460927 0 0 Z " fill="#17172E" transform="translate(178,118)"/>
<path d="M0 0 C1.32 0.33 2.64 0.66 4 1 C4 2.98 4 4.96 4 7 C4.66 7 5.32 7 6 7 C6.474375 7.639375 6.94875 8.27875 7.4375 8.9375 C8.9091365 11.28372963 8.9091365 11.28372963 12 12 C12 12.99 12 13.98 12 15 C12.99 15 13.98 15 15 15 C15.99 16.98 16.98 18.96 18 21 C14.15933963 19.43528652 11.86966685 16.93965873 9 14 C8.0925 13.38125 7.185 12.7625 6.25 12.125 C3.23850146 9.28080693 3.23296967 7.03814089 3 3 C2.01 2.67 1.02 2.34 0 2 C0 1.34 0 0.68 0 0 Z " fill="#B7B7BE" transform="translate(56,174)"/>
<path d="M0 0 C-2.67477931 2.67477931 -5.492975 3.6464114 -9 5 C-9.99 5 -10.98 5 -12 5 C-12 5.99 -12 6.98 -12 8 C-13.5778125 8.8971875 -13.5778125 8.8971875 -15.1875 9.8125 C-18.14860478 11.50370009 -21.08360936 13.23249052 -24 15 C-23.67 13.35 -23.34 11.7 -23 10 C-21.35 9.67 -19.7 9.34 -18 9 C-18 8.34 -18 7.68 -18 7 C-16.35 7 -14.7 7 -13 7 C-13 6.01 -13 5.02 -13 4 C-12.01 4 -11.02 4 -10 4 C-10 3.34 -10 2.68 -10 2 C-8.71211992 1.46987262 -7.41953322 0.9511671 -6.125 0.4375 C-5.40570313 0.14746094 -4.68640625 -0.14257812 -3.9453125 -0.44140625 C-2 -1 -2 -1 0 0 Z " fill="#3A3A4E" transform="translate(96,50)"/>
<path d="M0 0 C0.66 0 1.32 0 2 0 C1.84660156 1.22589844 1.69320312 2.45179687 1.53515625 3.71484375 C0.87540939 9.65256546 0.65692263 15.59492399 0.4375 21.5625 C0.39431641 22.66658203 0.35113281 23.77066406 0.30664062 24.90820312 C0.20155613 27.60537185 0.09940587 30.30261703 0 33 C-0.33 33 -0.66 33 -1 33 C-1.02465392 28.46102295 -1.04283789 23.92208457 -1.05493164 19.38305664 C-1.0599714 17.83780234 -1.0668032 16.29255284 -1.07543945 14.74731445 C-1.08752076 12.53074971 -1.09323173 10.31424782 -1.09765625 8.09765625 C-1.10281754 7.4028566 -1.10797882 6.70805695 -1.11329651 5.99220276 C-1.11349277 4.3277067 -1.06189129 2.66334501 -1 1 C-0.67 0.67 -0.34 0.34 0 0 Z " fill="#2F2F44" transform="translate(42,108)"/>
<path d="M0 0 C0.99 0.33 1.98 0.66 3 1 C3 1.66 3 2.32 3 3 C3.99 3.33 4.98 3.66 6 4 C6 4.66 6 5.32 6 6 C6.66 6 7.32 6 8 6 C8 6.99 8 7.98 8 9 C9.299375 8.855625 10.59875 8.71125 11.9375 8.5625 C12.66839844 8.48128906 13.39929688 8.40007812 14.15234375 8.31640625 C16.01140229 8.18113386 16.01140229 8.18113386 17 7 C18.99958364 6.95919217 21.00045254 6.95745644 23 7 C18.84236607 10.74884978 15.2540505 10.55605671 9.85546875 10.41796875 C7 10 7 10 3.875 7.8125 C2.15617069 5.23425604 0.92726367 2.9503844 0 0 Z " fill="#C4C4CA" transform="translate(136,202)"/>
<path d="M0 0 C0 0.33 0 0.66 0 1 C-0.94101563 1.12117188 -1.88203125 1.24234375 -2.8515625 1.3671875 C-4.71941406 1.61855469 -4.71941406 1.61855469 -6.625 1.875 C-8.46964844 2.11863281 -8.46964844 2.11863281 -10.3515625 2.3671875 C-13.97032413 2.9012426 -13.97032413 2.9012426 -17.2109375 4.0703125 C-20 5 -20 5 -24 5 C-24 5.66 -24 6.32 -24 7 C-25.65 7 -27.3 7 -29 7 C-24.30180185 1.71083353 -16.99310904 0.71352192 -10.21875 0.1171875 C-6.80450482 -0.06314235 -3.41842485 -0.06215318 0 0 Z " fill="#CACACF" transform="translate(123,46)"/>
<path d="M0 0 C1 3 1 3 -0.3125 5.6875 C-0.869375 6.450625 -1.42625 7.21375 -2 8 C-2.66 8 -3.32 8 -4 8 C-4.12375 8.5775 -4.2475 9.155 -4.375 9.75 C-5.03715445 12.13375602 -5.62380791 13.93571186 -7 16 C-8.64706275 16.71372719 -10.31349621 17.38524217 -12 18 C-4.88610478 5.33029613 -4.88610478 5.33029613 0 0 Z " fill="#2E2E43" transform="translate(207,169)"/>
<path d="M0 0 C0 0.66 0 1.32 0 2 C-3.63 2.66 -7.26 3.32 -11 4 C-11.33 4.99 -11.66 5.98 -12 7 C-11.34 7 -10.68 7 -10 7 C-10.33 7.99 -10.66 8.98 -11 10 C-13.5 7.6875 -13.5 7.6875 -16 5 C-16 4.01 -16 3.02 -16 2 C-14.08404518 1.66259915 -12.16720278 1.33023588 -10.25 1 C-9.18265625 0.814375 -8.1153125 0.62875 -7.015625 0.4375 C-4 0 -4 0 0 0 Z " fill="#B9B9C0" transform="translate(140,182)"/>
<path d="M0 0 C0.66 0.33 1.32 0.66 2 1 C-0.55518711 3.96189509 -3.44137864 5.37278003 -6.9375 7.0625 C-7.97777344 7.56910156 -9.01804688 8.07570312 -10.08984375 8.59765625 C-11.05019531 9.06042969 -12.01054687 9.52320313 -13 10 C-14.08474609 10.61681641 -14.08474609 10.61681641 -15.19140625 11.24609375 C-17 12 -17 12 -20 11 C-19 9 -19 9 -16.33203125 8.06640625 C-15.23246094 7.71449219 -14.13289062 7.36257812 -13 7 C-10.8782961 6.01613485 -8.77356957 4.99482293 -6.6875 3.9375 C-5.63949219 3.41027344 -4.59148437 2.88304687 -3.51171875 2.33984375 C-1.12752756 1.22455569 -1.12752756 1.22455569 0 0 Z " fill="#A9A9B2" transform="translate(179,197)"/>
<path d="M0 0 C1.32 0.33 2.64 0.66 4 1 C-7.21359223 10 -7.21359223 10 -14 10 C-14 10.66 -14 11.32 -14 12 C-15.32 11.67 -16.64 11.34 -18 11 C-12.25 8 -12.25 8 -10 8 C-10 7.34 -10 6.68 -10 6 C-8.02 5.67 -6.04 5.34 -4 5 C-4 4.34 -4 3.68 -4 3 C-3.01 2.67 -2.02 2.34 -1 2 C-0.67 1.34 -0.34 0.68 0 0 Z " fill="#36364B" transform="translate(160,169)"/>
<path d="M0 0 C0.99 0.33 1.98 0.66 3 1 C3 3.31 3 5.62 3 8 C3.99 8.33 4.98 8.66 6 9 C6.33 13.62 6.66 18.24 7 23 C4.77186324 20.77186324 4.59254974 19.93728304 4 16.9375 C3.83628906 16.13957031 3.67257813 15.34164062 3.50390625 14.51953125 C3.33761719 13.68808594 3.17132813 12.85664062 3 12 C2.65030212 10.37403247 2.29631707 8.74897948 1.9375 7.125 C1.78152344 6.40570313 1.62554687 5.68640625 1.46484375 4.9453125 C0.9829213 2.80362611 0.9829213 2.80362611 0 0 Z " fill="#2A2A3F" transform="translate(209,94)"/>
<path d="M0 0 C2.86866099 2.86866099 2.2905793 5.16650096 2.32226562 9.08984375 C2.31904297 10.00894531 2.31582031 10.92804688 2.3125 11.875 C2.32861328 12.78636719 2.34472656 13.69773438 2.36132812 14.63671875 C2.36197266 15.51714844 2.36261719 16.39757812 2.36328125 17.3046875 C2.36626221 18.10890137 2.36924316 18.91311523 2.37231445 19.74169922 C1.91678565 22.5047428 0.81206487 23.90673716 -1 26 C-0.96970703 25.42556152 -0.93941406 24.85112305 -0.90820312 24.25927734 C-0.77052775 21.6312663 -0.63524489 19.0031372 -0.5 16.375 C-0.45230469 15.47136719 -0.40460938 14.56773437 -0.35546875 13.63671875 C-0.12292245 9.08545547 0.06058671 4.55915017 0 0 Z " fill="#A3A3AD" transform="translate(214,121)"/>
<path d="M0 0 C15.74235025 4.81016258 15.74235025 4.81016258 18.22265625 9.12890625 C18.60744141 10.05509766 18.60744141 10.05509766 19 11 C16.50638429 9.79618552 14.31856917 8.54571278 12 7 C10.6078125 6.566875 10.6078125 6.566875 9.1875 6.125 C5.66701023 4.8824742 2.99570638 3.21111661 0 1 C0 0.67 0 0.34 0 0 Z " fill="#71717F" transform="translate(163,50)"/>
<path d="M0 0 C0.80244141 0.73476562 0.80244141 0.73476562 1.62109375 1.484375 C4.63551749 3.40489456 6.51669411 3.33787623 10.0625 3.25 C11.10535156 3.23453125 12.14820313 3.2190625 13.22265625 3.203125 C16.08533284 3.10832623 16.08533284 3.10832623 19 2 C19 2.99 19 3.98 19 5 C15.7 5 12.4 5 9 5 C9 5.66 9 6.32 9 7 C6.75 7.3125 6.75 7.3125 4 7 C0 2.89189189 0 2.89189189 0 0 Z " fill="#5A5A6B" transform="translate(139,208)"/>
<path d="M0 0 C0.66 0 1.32 0 2 0 C1.77734375 1.8984375 1.77734375 1.8984375 1 4 C-0.99609375 4.9765625 -0.99609375 4.9765625 -3.4375 5.625 C-7.10322398 6.59663002 -7.10322398 6.59663002 -10 9 C-12.68839385 9.26991906 -15.29141936 9.08737357 -18 9 C-18 8.67 -18 8.34 -18 8 C-16.02 8 -14.04 8 -12 8 C-12 7.34 -12 6.68 -12 6 C-11.21753906 5.65066406 -10.43507812 5.30132812 -9.62890625 4.94140625 C-8.61699219 4.48636719 -7.60507813 4.03132812 -6.5625 3.5625 C-5.55316406 3.11003906 -4.54382813 2.65757812 -3.50390625 2.19140625 C-1.1139529 1.22551798 -1.1139529 1.22551798 0 0 Z " fill="#9D9DA6" transform="translate(158,173)"/>
<path d="M0 0 C3.23861303 1.44424635 5.61969163 3.25772247 8.25 5.625 C8.95640625 6.25664062 9.6628125 6.88828125 10.390625 7.5390625 C10.92171875 8.02117187 11.4528125 8.50328125 12 9 C10.68 9.33 9.36 9.66 8 10 C7.67 9.01 7.34 8.02 7 7 C5.7934375 6.566875 5.7934375 6.566875 4.5625 6.125 C2 5 2 5 0.6875 2.375 C0.460625 1.59125 0.23375 0.8075 0 0 Z " fill="#434356" transform="translate(68,192)"/>
<path d="M0 0 C1.96076426 2.94114639 2.64046226 4.93507725 3.5 8.3125 C4.53275324 12.26527129 5.64473646 16.14271147 7 20 C6.01 19.67 5.02 19.34 4 19 C4 18.01 4 17.02 4 16 C3.34 16 2.68 16 2 16 C1.93941406 15.36191406 1.87882812 14.72382813 1.81640625 14.06640625 C1.73261719 13.24011719 1.64882813 12.41382813 1.5625 11.5625 C1.48128906 10.73878906 1.40007813 9.91507813 1.31640625 9.06640625 C1.21069185 7.01337975 1.21069185 7.01337975 0 6 C-0.04080783 4.00041636 -0.04254356 1.99954746 0 0 Z " fill="#4F4F61" transform="translate(45,150)"/>
<path d="M0 0 C1.17114775 2.85001852 1.05939414 3.85668377 -0.14453125 6.76171875 C-0.69496094 7.72722656 -1.24539062 8.69273438 -1.8125 9.6875 C-2.35519531 10.66074219 -2.89789063 11.63398437 -3.45703125 12.63671875 C-5 15 -5 15 -7 16 C-2.89320388 2.89320388 -2.89320388 2.89320388 0 0 Z " fill="#D7D7DB" transform="translate(56,84)"/>
<path d="M0 0 C-1.62249941 0.83819158 -3.24808497 1.6704116 -4.875 2.5 C-5.77992187 2.9640625 -6.68484375 3.428125 -7.6171875 3.90625 C-10 5 -10 5 -12 5 C-12 5.66 -12 6.32 -12 7 C-14 8.625 -14 8.625 -16 10 C-16.66 9.67 -17.32 9.34 -18 9 C-14.64418756 3.9084225 -6.45081792 -3.22540896 0 0 Z " fill="#757583" transform="translate(114,79)"/>
<path d="M0 0 C0.66 0 1.32 0 2 0 C0.69386058 3.91841827 -0.83129848 6.32640809 -4 9 C-4.66 9 -5.32 9 -6 9 C-6 9.66 -6 10.32 -6 11 C-6.99 10.67 -7.98 10.34 -9 10 C-7.625 8 -7.625 8 -6 6 C-5.34 6 -4.68 6 -4 6 C-3.71125 5.38125 -3.4225 4.7625 -3.125 4.125 C-2 2 -2 2 0 0 Z " fill="#2D2D43" transform="translate(94,89)"/>
<path d="M0 0 C2.94956528 1.36944102 5.52468811 2.87830409 8 5 C8 5.66 8 6.32 8 7 C8.99 7.33 9.98 7.66 11 8 C12.1875 10.5625 12.1875 10.5625 13 13 C12.01 12.67 11.02 12.34 10 12 C10 11.01 10 10.02 10 9 C8.68 8.67 7.36 8.34 6 8 C6 7.34 6 6.68 6 6 C5.34 6 4.68 6 4 6 C2.61061923 4.03852126 1.2739589 2.03833424 0 0 Z " fill="#7F7F8C" transform="translate(184,63)"/>
<path d="M0 0 C0.66 0 1.32 0 2 0 C3.78305524 2.63892176 4.99059621 4.97178863 6 8 C6.66 8 7.32 8 8 8 C8.66 9.65 9.32 11.3 10 13 C7.125 12.375 7.125 12.375 4 11 C2.75 8.1875 2.75 8.1875 2 5 C1.34588315 3.32836805 0.68346682 1.65984798 0 0 Z " fill="#92929D" transform="translate(85,158)"/>
<path d="M0 0 C0.66 0 1.32 0 2 0 C2 0.66 2 1.32 2 2 C6.34186925 3.55861973 10.62255808 4.58915663 15.14453125 5.4375 C16.06298828 5.7159375 16.06298828 5.7159375 17 6 C17.33 6.66 17.66 7.32 18 8 C11.83602003 6.87927637 5.92139107 5.02193841 0 3 C0 2.01 0 1.02 0 0 Z " fill="#737381" transform="translate(86,204)"/>
<path d="M0 0 C6.17573496 0.4145748 11.32902769 1.46831593 17 4 C17.33 4.66 17.66 5.32 18 6 C16.68 6 15.36 6 14 6 C14 5.34 14 4.68 14 4 C11.03 3.67 8.06 3.34 5 3 C5 2.34 5 1.68 5 1 C3.35 1 1.7 1 0 1 C0 0.67 0 0.34 0 0 Z " fill="#D1D1D6" transform="translate(147,47)"/>
<path d="M0 0 C-0.125 1.875 -0.125 1.875 -1 4 C-5.05701058 5.88698167 -8.56542098 6.21117043 -13 6 C-9.40464172 2.97989905 -4.81374718 0 0 0 Z " fill="#444457" transform="translate(172,204)"/>
<path d="M0 0 C3.96 0 7.92 0 12 0 C12 0.33 12 0.66 12 1 C10.72125 1.0825 9.4425 1.165 8.125 1.25 C3.34710852 1.74974776 -0.58105432 3.28248162 -4.93359375 5.2578125 C-5.61550781 5.50273438 -6.29742187 5.74765625 -7 6 C-7.66 5.67 -8.32 5.34 -9 5 C-5.55930376 2.70620251 -4.27709699 2 0 2 C0 1.34 0 0.68 0 0 Z " fill="#6C6C7B" transform="translate(103,46)"/>
<path d="M0 0 C2 1.375 2 1.375 4 3 C4 3.66 4 4.32 4 5 C4.66 5 5.32 5 6 5 C6 6.32 6 7.64 6 9 C6.99 9.33 7.98 9.66 9 10 C9 10.66 9 11.32 9 12 C7.68 11.67 6.36 11.34 5 11 C5 9.68 5 8.36 5 7 C4.01 6.67 3.02 6.34 2 6 C0.8125 2.9375 0.8125 2.9375 0 0 Z " fill="#B5B5BD" transform="translate(95,173)"/>
<path d="M0 0 C0.74886475 0.00523682 1.49772949 0.01047363 2.26928711 0.01586914 C3.07817383 0.0190918 3.88706055 0.02231445 4.72045898 0.02563477 C5.5705957 0.03401367 6.42073242 0.04239258 7.29663086 0.05102539 C8.15063477 0.05553711 9.00463867 0.06004883 9.88452148 0.06469727 C12.00108749 0.07652166 14.11761771 0.0944577 16.23413086 0.11352539 C16.23413086 0.44352539 16.23413086 0.77352539 16.23413086 1.11352539 C15.10233398 1.1509082 13.97053711 1.18829102 12.80444336 1.22680664 C11.32263881 1.29245621 9.84086947 1.3589039 8.35913086 1.42602539 C7.23958008 1.45986328 7.23958008 1.45986328 6.09741211 1.49438477 C4.13452686 1.59164485 2.18084764 1.84394833 0.23413086 2.11352539 C-0.75586914 3.59852539 -0.75586914 3.59852539 -1.76586914 5.11352539 C-2.32836914 3.17602539 -2.32836914 3.17602539 -2.76586914 1.11352539 C-1.76586914 0.11352539 -1.76586914 0.11352539 0 0 Z " fill="#49495B" transform="translate(123.765869140625,180.886474609375)"/>
<path d="M0 0 C0.99 0.33 1.98 0.66 3 1 C3.22786458 3.05078125 3.45572917 5.1015625 3.68359375 7.15234375 C3.81886614 9.01140229 3.81886614 9.01140229 5 10 C5.04063832 11.66617115 5.042721 13.33388095 5 15 C2.26094663 11.84821256 1.44730607 9.35182386 0.8125 5.25 C0.65394531 4.26515625 0.49539062 3.2803125 0.33203125 2.265625 C0.22246094 1.51796875 0.11289062 0.7703125 0 0 Z " fill="#B2B2B9" transform="translate(46,151)"/>
<path d="M0 0 C0.66 0.33 1.32 0.66 2 1 C1.45730469 1.47050781 0.91460937 1.94101563 0.35546875 2.42578125 C-0.71767578 3.35970703 -0.71767578 3.35970703 -1.8125 4.3125 C-2.52019531 4.92738281 -3.22789063 5.54226562 -3.95703125 6.17578125 C-5.70136739 7.73334335 -7.36778041 9.32658875 -9 11 C-9.33 10.34 -9.66 9.68 -10 9 C-9.34 9 -8.68 9 -8 9 C-8 7.68 -8 6.36 -8 5 C-6.20963542 3.99088542 -4.41927083 2.98177083 -2.62890625 1.97265625 C-1.02121854 1.1027487 -1.02121854 1.1027487 0 0 Z " fill="#9696A1" transform="translate(97,85)"/>
<path d="M0 0 C0.99 0 1.98 0 3 0 C3 3 3 3 1.625 4.6875 C0 6 0 6 -2 6 C-2.12375 6.639375 -2.2475 7.27875 -2.375 7.9375 C-2.58125 8.618125 -2.7875 9.29875 -3 10 C-3.99 10.495 -3.99 10.495 -5 11 C-5 10.01 -5 9.02 -5 8 C-4.34 8 -3.68 8 -3 8 C-2.67 6.35 -2.34 4.7 -2 3 C-1.34 3 -0.68 3 0 3 C0 2.01 0 1.02 0 0 Z " fill="#202037" transform="translate(58,74)"/>
<path d="M0 0 C0.33 0 0.66 0 1 0 C1.55811184 5.95319301 -0.75709826 11.1356474 -4 16 C-3.855625 15.28328125 -3.71125 14.5665625 -3.5625 13.828125 C-3.20024712 12.006798 -2.84548304 10.18395733 -2.5 8.359375 C-2.335 7.49828125 -2.17 6.6371875 -2 5.75 C-1.835 4.87859375 -1.67 4.0071875 -1.5 3.109375 C-1 1 -1 1 0 0 Z " fill="#555566" transform="translate(215,143)"/>
<path d="M0 0 C1.125 3.75 1.125 3.75 0 6 C-0.66 6 -1.32 6 -2 6 C-2 8.97 -2 11.94 -2 15 C-2.33 15 -2.66 15 -3 15 C-3 11.04 -3 7.08 -3 3 C-2.01 2.67 -1.02 2.34 0 2 C0 1.34 0 0.68 0 0 Z " fill="#ACACB4" transform="translate(48,100)"/>
<path d="M0 0 C1.7074998 1.28062485 3.37373596 2.61767557 5 4 C5 4.66 5 5.32 5 6 C5.99 6.33 6.98 6.66 8 7 C8.6875 9.0625 8.6875 9.0625 9 11 C8.34 11 7.68 11 7 11 C7 10.01 7 9.02 7 8 C6.401875 7.938125 5.80375 7.87625 5.1875 7.8125 C2.09660471 6.66445318 1.4119656 4.89452948 0 2 C0 1.34 0 0.68 0 0 Z " fill="#A1A1AB" transform="translate(108,191)"/>
<path d="M0 0 C0.66 0 1.32 0 2 0 C1.67 2.97 1.34 5.94 1 9 C0.34 9 -0.32 9 -1 9 C-1.09765625 2.84765625 -1.09765625 2.84765625 -1 1 C-0.67 0.67 -0.34 0.34 0 0 Z " fill="#27273D" transform="translate(42,108)"/>
<path d="M0 0 C0.99 0.33 1.98 0.66 3 1 C3 1.99 3 2.98 3 4 C3.66 4 4.32 4 5 4 C5.33 5.65 5.66 7.3 6 9 C6.66 9 7.32 9 8 9 C7.67 9.66 7.34 10.32 7 11 C3.18699218 7.7129243 1.77027754 4.60272162 0 0 Z " fill="#6F6F7E" transform="translate(197,76)"/>
<path d="M0 0 C1.4540625 0.0309375 1.4540625 0.0309375 2.9375 0.0625 C-0.44833802 3.19357836 -2.77359462 3.39800778 -7.3125 3.25 C-8.92898437 3.20939453 -8.92898437 3.20939453 -10.578125 3.16796875 C-11.39796875 3.13316406 -12.2178125 3.09835938 -13.0625 3.0625 C-13.0625 2.7325 -13.0625 2.4025 -13.0625 2.0625 C-12.10537109 1.97162109 -12.10537109 1.97162109 -11.12890625 1.87890625 C-9.88947266 1.75322266 -9.88947266 1.75322266 -8.625 1.625 C-7.80128906 1.54378906 -6.97757813 1.46257812 -6.12890625 1.37890625 C-3.13269668 0.92012936 -3.40485874 0.06948691 0 0 Z " fill="#AFAFB7" transform="translate(156.0625,208.9375)"/>
<path d="M0 0 C8.56097561 4.12195122 8.56097561 4.12195122 10 7 C7.29068581 6.84518205 5.53415961 6.51827919 3.5546875 4.59765625 C2.32320358 3.10228292 1.1570163 1.5537076 0 0 Z " fill="#9A9AA5" transform="translate(76,197)"/>
<path d="M0 0 C0.66 0.33 1.32 0.66 2 1 C0.625 3.5 0.625 3.5 -1 6 C-1.66 6 -2.32 6 -3 6 C-3.12375 6.639375 -3.2475 7.27875 -3.375 7.9375 C-3.58125 8.618125 -3.7875 9.29875 -4 10 C-4.99 10.495 -4.99 10.495 -6 11 C-6 10.01 -6 9.02 -6 8 C-5.34 8 -4.68 8 -4 8 C-3.67 6.35 -3.34 4.7 -3 3 C-2.34 3 -1.68 3 -1 3 C-0.67 2.01 -0.34 1.02 0 0 Z " fill="#DFDFE2" transform="translate(199,175)"/>
<path d="M0 0 C1.61648437 0.04060547 1.61648437 0.04060547 3.265625 0.08203125 C4.08546875 0.11683594 4.9053125 0.15164062 5.75 0.1875 C5.75 0.5175 5.75 0.8475 5.75 1.1875 C4.79287109 1.27837891 4.79287109 1.27837891 3.81640625 1.37109375 C2.99011719 1.45488281 2.16382812 1.53867188 1.3125 1.625 C0.07693359 1.74681641 0.07693359 1.74681641 -1.18359375 1.87109375 C-3.23662025 1.97680815 -3.23662025 1.97680815 -4.25 3.1875 C-6.24958364 3.22830783 -8.25045254 3.23004356 -10.25 3.1875 C-6.86416198 0.05642164 -4.53890538 -0.14800778 0 0 Z " fill="#313146" transform="translate(120.25,77.8125)"/>
<path d="M0 0 C0.33 0.99 0.66 1.98 1 3 C1.99 3.33 2.98 3.66 4 4 C5.6875 5.5625 5.6875 5.5625 7 7 C6.67 7.99 6.34 8.98 6 10 C2.46413986 6.82679218 0.41421969 4.83256305 0 0 Z " fill="#59596A" transform="translate(52,170)"/>
<path d="M0 0 C0.66 0 1.32 0 2 0 C1.45773019 3.79588866 -0.20127563 5.47211993 -3 8 C-3.33 7.34 -3.66 6.68 -4 6 C-3.67 5.01 -3.34 4.02 -3 3 C-2.01 3 -1.02 3 0 3 C0 2.01 0 1.02 0 0 Z " fill="#28283E" transform="translate(168,161)"/>
<path d="M0 0 C0.33 0 0.66 0 1 0 C1.39656505 3.46994421 1.19635612 4.72510143 -0.875 7.625 C-1.57625 8.40875 -2.2775 9.1925 -3 10 C-3.66 10.99 -4.32 11.98 -5 13 C-4.39254603 8.14036821 -2.27241033 4.2594482 0 0 Z " fill="#4B4B5D" transform="translate(84,100)"/>
<path d="M0 0 C0.66 0.33 1.32 0.66 2 1 C-0.11770166 3.32947183 -2.03335588 4.88750845 -5 6 C-5.99 5.67 -6.98 5.34 -8 5 C-7 3 -7 3 -4 1.9375 C-2.515 1.4734375 -2.515 1.4734375 -1 1 C-0.67 0.67 -0.34 0.34 0 0 Z " fill="#C5C5CB" transform="translate(167,203)"/>
<path d="M0 0 C1.32 0.33 2.64 0.66 4 1 C3.67 1.99 3.34 2.98 3 4 C3.66 4 4.32 4 5 4 C4.67 4.99 4.34 5.98 4 7 C2 5.1875 2 5.1875 0 3 C0 2.01 0 1.02 0 0 Z " fill="#DADADD" transform="translate(125,185)"/>
<path d="M0 0 C2.4375 0.6875 2.4375 0.6875 5 2 C5.8125 4.625 5.8125 4.625 6 7 C5.34 7 4.68 7 4 7 C0 2.52941176 0 2.52941176 0 0 Z " fill="#3C3C50" transform="translate(95,171)"/>
<path d="M0 0 C0 0.66 0 1.32 0 2 C-0.99 2 -1.98 2 -3 2 C-3.33 2.99 -3.66 3.98 -4 5 C-5.32 4.67 -6.64 4.34 -8 4 C-3.375 0 -3.375 0 0 0 Z " fill="#CCCCD1" transform="translate(79,62)"/>
<path d="M0 0 C1.98 0 3.96 0 6 0 C6.66 1.32 7.32 2.64 8 4 C6.68 4 5.36 4 4 4 C4 3.34 4 2.68 4 2 C2.68 1.34 1.36 0.68 0 0 Z " fill="#E4E4E7" transform="translate(112,211)"/>
<path d="M0 0 C0.66 0 1.32 0 2 0 C2 0.99 2 1.98 2 3 C1.34 3 0.68 3 0 3 C-0.12375 4.134375 -0.2475 5.26875 -0.375 6.4375 C-0.58125 7.613125 -0.7875 8.78875 -1 10 C-1.99 10.495 -1.99 10.495 -3 11 C-2.69217504 9.35328588 -2.37860766 7.70764424 -2.0625 6.0625 C-1.88847656 5.14597656 -1.71445313 4.22945312 -1.53515625 3.28515625 C-1 1 -1 1 0 0 Z " fill="#D0D0D5" transform="translate(208,158)"/>
<path d="M0 0 C0.33 0 0.66 0 1 0 C1.08086147 1.79093191 1.13912702 3.58289628 1.1875 5.375 C1.22230469 6.37273437 1.25710937 7.37046875 1.29296875 8.3984375 C1.19628906 9.25695312 1.09960938 10.11546875 1 11 C0.01 11.66 -0.98 12.32 -2 13 C-2 11.68 -2 10.36 -2 9 C-1.34 9 -0.68 9 0 9 C0 6.03 0 3.06 0 0 Z " fill="#D7D7DB" transform="translate(212,141)"/>
<path d="M0 0 C1.98 0.66 3.96 1.32 6 2 C6 2.66 6 3.32 6 4 C6.66 4 7.32 4 8 4 C7.67 4.99 7.34 5.98 7 7 C5.83040013 6.02433888 4.66438823 5.044375 3.5 4.0625 C2.8503125 3.51722656 2.200625 2.97195312 1.53125 2.41015625 C1.0259375 1.94480469 0.520625 1.47945312 0 1 C0 0.67 0 0.34 0 0 Z " fill="#28283E" transform="translate(180,58)"/>
<path d="M0 0 C2.31 1.98 4.62 3.96 7 6 C6.67 6.66 6.34 7.32 6 8 C2.24623848 6.74874616 1.75926711 5.4347596 0 2 C0 1.34 0 0.68 0 0 Z " fill="#4D4D5F" transform="translate(131,198)"/>
<path d="M0 0 C3.99455527 0.61454696 6.74466336 2.70646737 10 5 C6.26879511 5 4.21944311 3.81968524 1 2 C0.67 1.34 0.34 0.68 0 0 Z " fill="#4B4B5E" transform="translate(153,83)"/>
<path d="M0 0 C2.64 0 5.28 0 8 0 C4.81237635 2.12508244 2.73487777 2.5020163 -1 3 C-0.67 2.01 -0.34 1.02 0 0 Z " fill="#D9D9DD" transform="translate(110,76)"/>
</svg>
